<svg version="1.2" baseProfile="tiny-ps" xmlns="http://www.w3.org/2000/svg" viewBox="0 0 226 68" width="226" height="68">
	<title>default-svg</title>
	<style>
		tspan { white-space:pre }
		.shp0 { fill: #daa520 } 
	</style>
	<g id="8de7bf42-d987-41e4-ba59-703ac4866cd9">
		<path id="Layer" fill-rule="evenodd" class="shp0" d="M93.69 31.42L93.69 38.01L93.17 38.01C92.94 32.06 86.32 31.94 86.07 31.94L84.73 31.94L84.73 52.15C84.73 54.49 86.02 55.44 87.47 55.44L87.47 55.96L77.71 55.96L77.71 55.44C79.18 55.44 80.47 54.49 80.47 52.15L80.47 31.94L79.1 31.94C78.58 31.94 72.28 32.06 72.08 38.01L71.56 38.01L71.56 31.42L93.69 31.42ZM109.15 53.87C108.9 54.94 107.51 56.29 105.49 56.29C105.49 56.29 102.6 56.31 102.28 53.37C101.81 54.99 99.74 56.29 97.3 56.29C97.3 56.29 93.29 56.29 93.29 52.73C93.29 49.07 96.23 48.49 102.25 46.98L102.25 44.88C102.25 41.3 100.36 39.38 97.75 40.63C96.53 41.25 96.35 41.87 96.58 41.92C97.05 42 97.45 42.2 97.75 42.62C98.35 43.42 98.15 44.54 97.35 45.13C96.53 45.68 95.38 45.51 94.83 44.71C94.41 44.11 94.39 43.34 94.69 42.79C95.01 42.22 95.53 41.25 97.4 40.25C98.94 39.43 100.71 39.56 100.71 39.56C104.89 39.56 106.01 42.39 106.01 46.53L106.01 52.1C106.01 52.1 106.01 54.39 107.66 54.39C107.66 54.39 108.43 54.39 108.63 53.67L109.15 53.87ZM97.1 51.93C97.1 52.4 97.4 54.42 99.61 54.42C101.11 54.42 101.93 53.35 102.25 52.5C102.25 52.45 102.25 47.57 102.25 47.57C98.52 48.39 97.1 49.96 97.1 51.93ZM111.76 34.63C111.76 33.46 112.71 32.54 113.83 32.54C114.98 32.54 115.95 33.46 115.95 34.63C115.95 35.77 114.98 36.69 113.83 36.69C112.71 36.69 111.76 35.77 111.76 34.63ZM112.34 43.66C112.34 42.47 112.04 41.85 110.59 41.25L110.59 40.73L116 39.56L116 54.22C116 60.82 113.31 63.03 109.85 63.9L109.85 63.38C112.34 62.68 112.34 55.64 112.34 55.02L112.34 43.66ZM160.01 55.44L160.01 55.96L150.28 55.96L150.28 55.44C151.75 55.44 152.79 54.42 152.79 51.8L152.79 32.93L143.98 56.29L143.46 56.29L133.7 35.15L133.7 47.22C133.7 49.24 133.97 55.44 138.33 55.44L138.33 55.96L128.12 55.96L128.12 55.44C132.85 55.44 133.17 49.19 133.17 47.22L133.17 34.33C131.88 32.01 130.14 32.01 129.26 31.94L129.26 31.42L137.13 31.42L145.85 50.14L152.79 31.42L159.76 31.42L159.76 31.94C158.27 31.94 157.07 32.78 157.07 35.03L157.07 51.8C157.07 54.42 158.52 55.44 160.01 55.44ZM177.99 53.87C177.74 54.94 176.34 56.29 174.33 56.29C174.33 56.29 171.44 56.31 171.11 53.37C170.64 54.99 168.57 56.29 166.13 56.29C166.13 56.29 162.13 56.29 162.13 52.73C162.13 49.07 165.06 48.49 171.09 46.98L171.09 44.88C171.09 41.3 169.2 39.38 166.58 40.63C165.36 41.25 165.19 41.87 165.41 41.92C165.89 42 166.28 42.2 166.58 42.62C167.18 43.42 166.98 44.54 166.18 45.13C165.36 45.68 164.22 45.51 163.67 44.71C163.25 44.11 163.22 43.34 163.52 42.79C163.84 42.22 164.37 41.25 166.23 40.25C167.78 39.43 169.55 39.56 169.55 39.56C173.73 39.56 174.85 42.39 174.85 46.53L174.85 52.1C174.85 52.1 174.85 54.39 176.49 54.39C176.49 54.39 177.26 54.39 177.46 53.67L177.99 53.87ZM165.94 51.93C165.94 52.4 166.23 54.42 168.45 54.42C169.94 54.42 170.77 53.35 171.09 52.5C171.09 52.45 171.09 47.57 171.09 47.57C167.35 48.39 165.94 49.96 165.94 51.93ZM196.03 55.96L189.54 55.96L189.54 55.44C190.86 55.07 190.93 53.97 190.93 52.2L190.93 45.18C190.93 42.92 189.89 41.75 187.64 41.75C186.33 41.75 185.06 42.89 184.41 44.19L184.41 52.2C184.41 54.12 184.58 55.09 185.83 55.41L185.83 55.96L179.3 55.96L179.3 55.41C180.65 55.02 180.7 53.97 180.7 52.2L180.7 33.86C180.7 32.64 180.4 32.26 178.96 31.89L178.96 31.37L184.41 30.1L184.41 43.42C185.03 41.5 187.79 39.56 190.01 39.56C192.85 39.56 194.62 40.88 194.62 45.06L194.62 52.2C194.62 54.12 194.81 55.12 196.03 55.44L196.03 55.96ZM213.93 53.87C213.68 54.94 212.29 56.29 210.27 56.29C210.27 56.29 207.36 56.31 207.06 53.37C206.56 54.99 204.52 56.29 202.08 56.29C202.08 56.29 198.08 56.29 198.08 52.73C198.08 49.07 200.99 48.49 207.01 46.98L207.01 44.88C207.01 41.3 205.15 39.38 202.53 40.63C201.31 41.25 201.14 41.87 201.34 41.92C201.83 42 202.21 42.2 202.53 42.62C203.13 43.42 202.91 44.54 202.11 45.13C201.31 45.68 200.17 45.51 199.59 44.71C199.17 44.11 199.15 43.34 199.47 42.79C199.77 42.22 200.29 41.25 202.18 40.25C203.7 39.43 205.49 39.56 205.49 39.56C209.68 39.56 210.8 42.39 210.8 46.53L210.8 52.1C210.8 52.1 210.8 54.39 212.42 54.39C212.42 54.39 213.19 54.39 213.41 53.67L213.93 53.87ZM201.86 51.93C201.86 52.4 202.18 54.42 204.37 54.42C205.87 54.42 206.71 53.35 207.01 52.5C207.01 52.45 207.01 47.57 207.01 47.57C203.3 48.39 201.86 49.96 201.86 51.93ZM222 55.96L215.5 55.96L215.5 55.44C216.82 55.07 216.9 54.02 216.9 52.23L216.9 33.86C216.9 32.64 216.57 32.11 215.15 31.74L215.15 31.22L220.58 30.1L220.58 52.23C220.58 54.14 220.76 55.12 222 55.44L222 55.96Z" />
	</g>
	<g id="492dfdb0-d3f3-4448-9f87-6f4ff16692b7">
		<path id="Layer" fill-rule="evenodd" class="shp0" d="M56.26 55.36L57.39 31.13L57.18 31.13L57.18 28.17C57.18 27.18 58.37 26.83 58.37 25.84C58.37 26.76 59.57 27.18 59.57 28.17L59.57 31.13L59.36 31.13L60.56 55.36L56.26 55.36ZM8.3 55.36L4 55.36L5.13 31.13L4.92 31.13L4.92 28.17C4.92 27.18 6.11 26.83 6.11 25.84C6.11 26.76 7.31 27.18 7.31 28.17L7.31 31.13L7.1 31.13L8.3 55.36ZM54.15 33.45L54.43 37.25L54.43 55.36L48.8 55.36L48.8 51.62C48.8 50.43 46.82 49.72 46.82 48.81C46.75 49.72 44.85 50.43 44.85 51.62L44.85 55.36L37.88 55.36L37.88 44.58C37.95 41.13 32.31 39.16 32.31 36.41C32.31 39.09 26.75 41.06 26.75 44.58L26.75 55.36L19.78 55.36L19.78 51.62C19.78 50.43 17.8 49.72 17.8 48.81C17.73 49.72 15.83 50.43 15.83 51.62L15.83 55.36L10.2 55.36L10.2 37.18L10.48 33.38L10.83 36.69L12.31 35.42L12.31 35.35L14.99 35.35C12.24 32.18 17.24 30.92 17.24 29.01C17.24 30.28 19.42 31.27 20.13 32.68L20.13 32.61C10.62 19.01 32.24 13.24 32.31 4.64C32.38 13.17 53.3 18.87 44.92 32.04L44.92 32.11C45.84 30.99 47.39 30.14 47.39 29.08C47.39 30.99 52.39 32.25 49.64 35.42L52.32 35.42L52.32 35.49L53.8 36.76L54.15 33.45ZM19.71 46.41L19.71 42.68C19.71 41.48 17.73 40.78 17.73 39.86C17.66 40.78 15.76 41.48 15.76 42.68L15.76 46.41L19.71 46.41ZM48.87 46.41L48.87 42.68C48.87 41.48 46.89 40.78 46.89 39.86C46.82 40.78 44.92 41.48 44.92 42.68L44.92 46.41L48.87 46.41Z" />
	</g>
</svg>