<svg version="1.2" baseProfile="tiny-ps" xmlns="http://www.w3.org/2000/svg" viewBox="0 0 224 65" width="224" height="65">
	<title>default-svg</title>
	<style>
		tspan { white-space:pre }
		.shp0 { fill: #ffffff } 
	</style>
	<g id="f823af00-5566-4b5e-970f-5ba13883e18c">
		<path id="Layer" fill-rule="evenodd" class="shp0" d="M93.69 30.42L93.69 37.01L93.17 37.01C92.94 31.06 86.32 30.94 86.07 30.94L84.73 30.94L84.73 51.15C84.73 53.49 86.02 54.44 87.47 54.44L87.47 54.96L77.71 54.96L77.71 54.44C79.18 54.44 80.47 53.49 80.47 51.15L80.47 30.94L79.1 30.94C78.58 30.94 72.28 31.06 72.08 37.01L71.56 37.01L71.56 30.42L93.69 30.42ZM109.15 52.87C108.9 53.94 107.51 55.29 105.49 55.29C105.49 55.29 102.6 55.31 102.28 52.37C101.81 53.99 99.74 55.29 97.3 55.29C97.3 55.29 93.29 55.29 93.29 51.73C93.29 48.07 96.23 47.49 102.25 45.98L102.25 43.88C102.25 40.3 100.36 38.38 97.75 39.63C96.53 40.25 96.35 40.87 96.58 40.92C97.05 41 97.45 41.2 97.75 41.62C98.35 42.42 98.15 43.54 97.35 44.13C96.53 44.68 95.38 44.51 94.83 43.71C94.41 43.11 94.39 42.34 94.69 41.79C95.01 41.22 95.53 40.25 97.4 39.25C98.94 38.43 100.71 38.56 100.71 38.56C104.89 38.56 106.01 41.39 106.01 45.53L106.01 51.1C106.01 51.1 106.01 53.39 107.66 53.39C107.66 53.39 108.43 53.39 108.63 52.67L109.15 52.87ZM97.1 50.93C97.1 51.4 97.4 53.42 99.61 53.42C101.11 53.42 101.93 52.35 102.25 51.5C102.25 51.45 102.25 46.57 102.25 46.57C98.52 47.39 97.1 48.96 97.1 50.93ZM111.76 33.63C111.76 32.46 112.71 31.54 113.83 31.54C114.98 31.54 115.95 32.46 115.95 33.63C115.95 34.77 114.98 35.69 113.83 35.69C112.71 35.69 111.76 34.77 111.76 33.63ZM112.34 42.66C112.34 41.47 112.04 40.85 110.59 40.25L110.59 39.73L116 38.56L116 53.22C116 59.82 113.31 62.03 109.85 62.9L109.85 62.38C112.34 61.68 112.34 54.64 112.34 54.02L112.34 42.66ZM160.01 54.44L160.01 54.96L150.28 54.96L150.28 54.44C151.75 54.44 152.79 53.42 152.79 50.8L152.79 31.93L143.98 55.29L143.46 55.29L133.7 34.15L133.7 46.22C133.7 48.24 133.97 54.44 138.33 54.44L138.33 54.96L128.12 54.96L128.12 54.44C132.85 54.44 133.17 48.19 133.17 46.22L133.17 33.33C131.88 31.01 130.14 31.01 129.26 30.94L129.26 30.42L137.13 30.42L145.85 49.14L152.79 30.42L159.76 30.42L159.76 30.94C158.27 30.94 157.07 31.78 157.07 34.03L157.07 50.8C157.07 53.42 158.52 54.44 160.01 54.44ZM177.99 52.87C177.74 53.94 176.34 55.29 174.33 55.29C174.33 55.29 171.44 55.31 171.11 52.37C170.64 53.99 168.57 55.29 166.13 55.29C166.13 55.29 162.13 55.29 162.13 51.73C162.13 48.07 165.06 47.49 171.09 45.98L171.09 43.88C171.09 40.3 169.2 38.38 166.58 39.63C165.36 40.25 165.19 40.87 165.41 40.92C165.89 41 166.28 41.2 166.58 41.62C167.18 42.42 166.98 43.54 166.18 44.13C165.36 44.68 164.22 44.51 163.67 43.71C163.25 43.11 163.22 42.34 163.52 41.79C163.84 41.22 164.37 40.25 166.23 39.25C167.78 38.43 169.55 38.56 169.55 38.56C173.73 38.56 174.85 41.39 174.85 45.53L174.85 51.1C174.85 51.1 174.85 53.39 176.49 53.39C176.49 53.39 177.26 53.39 177.46 52.67L177.99 52.87ZM165.94 50.93C165.94 51.4 166.23 53.42 168.45 53.42C169.94 53.42 170.77 52.35 171.09 51.5C171.09 51.45 171.09 46.57 171.09 46.57C167.35 47.39 165.94 48.96 165.94 50.93ZM196.03 54.96L189.54 54.96L189.54 54.44C190.86 54.07 190.93 52.97 190.93 51.2L190.93 44.18C190.93 41.92 189.89 40.75 187.64 40.75C186.33 40.75 185.06 41.89 184.41 43.19L184.41 51.2C184.41 53.12 184.58 54.09 185.83 54.41L185.83 54.96L179.3 54.96L179.3 54.41C180.65 54.02 180.7 52.97 180.7 51.2L180.7 32.86C180.7 31.64 180.4 31.26 178.96 30.89L178.96 30.37L184.41 29.1L184.41 42.42C185.03 40.5 187.79 38.56 190.01 38.56C192.85 38.56 194.62 39.88 194.62 44.06L194.62 51.2C194.62 53.12 194.81 54.12 196.03 54.44L196.03 54.96ZM213.93 52.87C213.68 53.94 212.29 55.29 210.27 55.29C210.27 55.29 207.36 55.31 207.06 52.37C206.56 53.99 204.52 55.29 202.08 55.29C202.08 55.29 198.08 55.29 198.08 51.73C198.08 48.07 200.99 47.49 207.01 45.98L207.01 43.88C207.01 40.3 205.15 38.38 202.53 39.63C201.31 40.25 201.14 40.87 201.34 40.92C201.83 41 202.21 41.2 202.53 41.62C203.13 42.42 202.91 43.54 202.11 44.13C201.31 44.68 200.17 44.51 199.59 43.71C199.17 43.11 199.15 42.34 199.47 41.79C199.77 41.22 200.29 40.25 202.18 39.25C203.7 38.43 205.49 38.56 205.49 38.56C209.68 38.56 210.8 41.39 210.8 45.53L210.8 51.1C210.8 51.1 210.8 53.39 212.42 53.39C212.42 53.39 213.19 53.39 213.41 52.67L213.93 52.87ZM201.86 50.93C201.86 51.4 202.18 53.42 204.37 53.42C205.87 53.42 206.71 52.35 207.01 51.5C207.01 51.45 207.01 46.57 207.01 46.57C203.3 47.39 201.86 48.96 201.86 50.93ZM222 54.96L215.5 54.96L215.5 54.44C216.82 54.07 216.9 53.02 216.9 51.23L216.9 32.86C216.9 31.64 216.57 31.11 215.15 30.74L215.15 30.22L220.58 29.1L220.58 51.23C220.58 53.14 220.76 54.12 222 54.44L222 54.96Z" />
	</g>
	<g id="f520e25b-432d-427f-98f4-8f984783744d">
		<path id="Layer" fill-rule="evenodd" class="shp0" d="M56.26 54.36L57.39 30.13L57.18 30.13L57.18 27.17C57.18 26.18 58.37 25.83 58.37 24.84C58.37 25.76 59.57 26.18 59.57 27.17L59.57 30.13L59.36 30.13L60.56 54.36L56.26 54.36ZM8.3 54.36L4 54.36L5.13 30.13L4.92 30.13L4.92 27.17C4.92 26.18 6.11 25.83 6.11 24.84C6.11 25.76 7.31 26.18 7.31 27.17L7.31 30.13L7.1 30.13L8.3 54.36ZM54.15 32.45L54.43 36.25L54.43 54.36L48.8 54.36L48.8 50.62C48.8 49.43 46.82 48.72 46.82 47.81C46.75 48.72 44.85 49.43 44.85 50.62L44.85 54.36L37.88 54.36L37.88 43.58C37.95 40.13 32.31 38.16 32.31 35.41C32.31 38.09 26.75 40.06 26.75 43.58L26.75 54.36L19.78 54.36L19.78 50.62C19.78 49.43 17.8 48.72 17.8 47.81C17.73 48.72 15.83 49.43 15.83 50.62L15.83 54.36L10.2 54.36L10.2 36.18L10.48 32.38L10.83 35.69L12.31 34.42L12.31 34.35L14.99 34.35C12.24 31.18 17.24 29.92 17.24 28.01C17.24 29.28 19.42 30.27 20.13 31.68L20.13 31.61C10.62 18.01 32.24 12.24 32.31 3.64C32.38 12.17 53.3 17.87 44.92 31.04L44.92 31.11C45.84 29.99 47.39 29.14 47.39 28.08C47.39 29.99 52.39 31.25 49.64 34.42L52.32 34.42L52.32 34.49L53.8 35.76L54.15 32.45ZM19.71 45.41L19.71 41.68C19.71 40.48 17.73 39.78 17.73 38.86C17.66 39.78 15.76 40.48 15.76 41.68L15.76 45.41L19.71 45.41ZM48.87 45.41L48.87 41.68C48.87 40.48 46.89 39.78 46.89 38.86C46.82 39.78 44.92 40.48 44.92 41.68L44.92 45.41L48.87 45.41Z" />
	</g>
</svg>